<svg width="300" height="38" viewBox="0 0 300 38" fill="none" xmlns="http://www.w3.org/2000/svg">
<path fill-rule="evenodd" clip-rule="evenodd" d="M299.286 4.58621C299.286 7.1191 297.227 9.17241 294.687 9.17241C292.148 9.17241 290.089 7.1191 290.089 4.58621C290.089 2.05331 292.148 0 294.687 0C297.227 0 299.286 2.05331 299.286 4.58621ZM298.629 4.58621C298.629 6.75726 296.864 8.51724 294.687 8.51724C292.51 8.51724 290.746 6.75726 290.746 4.58621C290.746 2.41516 292.51 0.655172 294.687 0.655172C296.864 0.655172 298.629 2.41516 298.629 4.58621Z" fill="#005078"/>
<path d="M155.533 25.5517C153.232 30.9437 147.871 34.7241 141.624 34.7241C133.28 34.7241 126.515 27.9775 126.515 19.6552C126.515 11.3328 133.28 4.58621 141.624 4.58621C147.871 4.58621 153.232 8.36666 155.533 13.7586H159.047C156.585 6.51969 149.715 1.31034 141.624 1.31034C131.466 1.31034 123.23 9.5236 123.23 19.6552C123.23 29.7867 131.466 38 141.624 38C149.715 38 156.585 32.7907 159.047 25.5517H155.533Z" fill="#005078"/>
<path d="M24.692 2.2931H0.714355V37.6724H24.692V34.3965H3.99897V5.56897H24.692V2.2931Z" fill="#005078"/>
<path d="M7.28358 20.9655H23.3782V17.6897H7.28358V20.9655Z" fill="#005078"/>
<path d="M212.572 2.2931H188.594V37.6724H212.572V34.3965H191.879V5.56897H212.572V2.2931Z" fill="#005078"/>
<path d="M195.163 20.9655H211.258V17.6897H195.163V20.9655Z" fill="#005078"/>
<path d="M37.1736 2.2931H61.1512V5.56897H40.4582V38H37.1736V2.2931Z" fill="#005078"/>
<path d="M59.5089 20.9655H43.7428V17.6897H59.5089V20.9655Z" fill="#005078"/>
<path d="M72.9758 2.2931H96.9535V5.56897H76.2605V38H72.9758V2.2931Z" fill="#005078"/>
<path d="M95.3112 20.9655H79.5451V17.6897H95.3112V20.9655Z" fill="#005078"/>
<path d="M109.107 38V2.62069H112.391V38H109.107Z" fill="#005078"/>
<path d="M170.2 2.62069V38H173.485V2.62069H170.2Z" fill="#005078"/>
<path d="M225.71 5.56897V2.2931H241.476C243.362 2.2931 245.677 3.09662 247.528 4.51639C249.411 5.96091 251.002 8.19979 251.002 11.1379C251.002 13.7298 250.258 16.1982 248.616 18.0408C246.949 19.9119 244.506 20.9655 241.476 20.9655H241.247L252.547 38H248.608L237.309 20.9655H228.667V38H225.382V17.6897H241.476C243.703 17.6897 245.201 16.9415 246.161 15.8644C247.147 14.7587 247.717 13.1323 247.717 11.1379C247.717 9.48987 246.845 8.1253 245.525 7.11292C244.173 6.07579 242.548 5.56897 241.476 5.56897H225.71Z" fill="#005078"/>
<path d="M277.545 1.96552H275.043L260.974 38H264.499L276.291 7.79732L281.795 21.9483H274.286L273.009 25.0709V25.2241H283.069L288.039 38H291.562L277.545 1.96552Z" fill="#005078"/>
<path fill-rule="evenodd" clip-rule="evenodd" d="M295.222 2.02246H293.051V6.94784H293.604V4.85723H294.68L296.193 6.94784H296.876L295.357 4.85046C296.127 4.77207 296.536 4.02822 296.536 3.40532C296.536 3.04234 296.378 2.70045 296.145 2.45094C295.913 2.20193 295.584 2.02246 295.222 2.02246ZM295.222 4.30461H293.604V2.57508H295.222C295.399 2.57508 295.589 2.66536 295.741 2.82786C295.892 2.98985 295.983 3.20124 295.983 3.40532C295.983 3.88104 295.665 4.30461 295.222 4.30461Z" fill="#005078"/>
</svg>
