<svg width="134" height="38" viewBox="0 0 134 38" fill="none" xmlns="http://www.w3.org/2000/svg">
<path d="M120.646 7.4642V1.21158H118.094V0H124.518V1.21158H121.989V7.4642H120.646ZM125.771 7.4642V0H127.45L128.659 2.85587L129.352 4.80305H129.464L130.18 2.85587L131.344 0H133.023V7.4642H131.77V4.00254L131.926 1.51447H131.814L129.934 6.31752H128.838L127.002 1.51447H126.89L127.047 4.00254V7.4642H125.771Z" fill="#005078"/>
<path d="M105.473 38C101.064 38 97.6455 35.3247 97.6455 30.4199C97.6455 24.5738 102.748 21.7003 114.242 20.4122C114.292 16.7955 113.202 13.278 108.595 13.278C105.374 13.278 102.501 14.8138 100.42 16.201L98.8346 13.3771C101.163 11.8412 104.879 9.90906 109.189 9.90906C115.729 9.90906 118.305 14.3184 118.305 20.7095V37.3064H114.986L114.639 34.0861H114.441C111.864 36.2164 108.842 38 105.473 38ZM106.514 34.6806C109.239 34.6806 111.518 33.3925 114.242 30.9649V23.1866C104.78 24.227 101.609 26.5555 101.609 30.1722C101.609 33.442 103.789 34.6806 106.514 34.6806Z" fill="#005078"/>
<path d="M82.0103 37.3064V10.5531H85.3296L85.726 15.4579H85.8251C87.7077 12.089 90.383 9.90906 93.4052 9.90906C94.5942 9.90906 95.3869 10.0577 96.2291 10.454L95.486 13.9716C94.5942 13.6743 93.9997 13.5257 92.9097 13.5257C90.6307 13.5257 87.9059 15.2102 86.0232 19.9168V37.3064H82.0103Z" fill="#005078"/>
<path d="M71.7985 37.9996C66.2497 37.9996 64.4166 34.482 64.4166 29.28V13.8721H60.4036V10.85L64.6147 10.5527L65.0606 2.97263H68.4295V10.5527H75.8115V13.8721H68.4295V29.4286C68.4295 32.6985 69.4204 34.6802 72.6902 34.6802C73.6316 34.6802 74.9197 34.3334 75.7619 33.9371L76.6042 36.9592C75.0683 37.5042 73.3343 37.9996 71.7985 37.9996Z" fill="#005078"/>
<path d="M49.6433 38C42.6082 38 37.208 32.8475 37.208 23.9793C37.208 15.0615 43.1532 9.90906 49.9406 9.90906C53.4581 9.90906 55.9353 11.3954 57.7684 13.0798L55.6876 15.7551C54.1022 14.3184 52.3187 13.278 50.1388 13.278C45.0854 13.278 41.4192 17.5882 41.4192 23.9793C41.4192 30.3208 44.8872 34.5815 50.0397 34.5815C52.5664 34.5815 54.7958 33.3925 56.5298 31.8567L58.3134 34.5815C55.9353 36.6623 52.9132 38 49.6433 38Z" fill="#005078"/>
<path d="M16.3354 37.9997C7.31857 37.9997 0.977051 30.6673 0.977051 19.0742C0.977051 7.48115 7.31857 0.396484 16.3354 0.396484C25.3523 0.396484 31.6938 7.48115 31.6938 19.0742C31.6938 30.6673 25.3523 37.9997 16.3354 37.9997ZM16.3354 34.383C23.0237 34.383 27.4826 28.3388 27.4826 19.0742C27.4826 9.76013 23.0237 4.01313 16.3354 4.01313C9.6471 4.01313 5.18822 9.76013 5.18822 19.0742C5.18822 28.3388 9.6471 34.383 16.3354 34.383Z" fill="#005078"/>
</svg>
